<svg xmlns="http://www.w3.org/2000/svg" style="display: none">
  <symbol id="logo" viewBox="0 0 24 30" fill="none" stroke="currentColor" stroke-width="0"
          stroke-linecap="round" stroke-linejoin="round">
    <path d="M11.1178 1H13.8543L11.1178 7.13072H8.38134L11.1178 1Z" fill="currentColor" />
    <path d="M15.6907 1H18.4272L15.6907 7.13072H12.9542L15.6907 1Z" fill="currentColor" />
    <path
      d="M5.53682 26.6209C5.53682 26.3177 5.77864 26.0719 6.07692 26.0719H7.87725C8.17554 26.0719 8.41735 26.3177 8.41735 26.6209V28.451C8.41735 28.7542 8.17554 29 7.87725 29H6.07692C5.77864 29 5.53682 28.7542 5.53682 28.451V26.6209Z"
      fill="currentColor" />
    <path
      d="M15.5827 26.6209C15.5827 26.3177 15.8245 26.0719 16.1227 26.0719H17.9231C18.2214 26.0719 18.4632 26.3177 18.4632 26.6209V28.451C18.4632 28.7542 18.2214 29 17.9231 29H16.1227C15.8245 29 15.5827 28.7542 15.5827 28.451V26.6209Z"
      fill="currentColor" />
    <path fill-rule="evenodd" clip-rule="evenodd"
          d="M19.3633 8.06405C20.1588 8.06405 20.8036 8.71953 20.8036 9.5281V25.4497C20.8036 26.2582 20.1588 26.9137 19.3633 26.9137H4.63666C3.84123 26.9137 3.1964 26.2582 3.1964 25.4497V9.5281C3.1964 8.71953 3.84123 8.06405 4.63666 8.06405H19.3633ZM7.44517 22.1922V24.0222H9.38953V22.1922H7.44517ZM14.6105 22.1922V24.0222H16.5548V22.1922H14.6105ZM5.9689 10.919V18.6052H18.0311V10.919H5.9689Z"
          fill="currentColor" />
    <path
      d="M1 12.7856C1 12.6845 1.0806 12.6026 1.18003 12.6026H2.29624C2.39567 12.6026 2.47627 12.6845 2.47627 12.7856V15.8235C2.47627 15.9246 2.39567 16.0065 2.29624 16.0065H1.18003C1.0806 16.0065 1 15.9246 1 15.8235V12.7856Z"
      fill="currentColor" />
    <path
      d="M21.5237 12.7856C21.5237 12.6845 21.6043 12.6026 21.7038 12.6026H22.82C22.9194 12.6026 23 12.6845 23 12.7856V15.8235C23 15.9246 22.9194 16.0065 22.82 16.0065H21.7038C21.6043 16.0065 21.5237 15.9246 21.5237 15.8235V12.7856Z"
      fill="currentColor" />
  </symbol>

  <symbol id="forward" viewBox="0 0 24 24" fill="none" stroke="currentColor" stroke-width="2"
          stroke-linecap="round" stroke-linejoin="round">
    <path
      d="M11 9a1 1 0 0 0 1-1V5.061a1 1 0 0 1 1.811-.75l6.836 6.836a1.207 1.207 0 0 1 0 1.707l-6.836 6.835a1 1 0 0 1-1.811-.75V16a1 1 0 0 0-1-1H5a1 1 0 0 1-1-1v-4a1 1 0 0 1 1-1z"
    />
  </symbol>

  <symbol id="backward" viewBox="0 0 24 24" fill="none" stroke="currentColor" stroke-width="2"
          stroke-linecap="round" stroke-linejoin="round">
    <path
      d="M13 9a1 1 0 0 1-1-1V5.061a1 1 0 0 0-1.811-.75l-6.835 6.836a1.207 1.207 0 0 0 0 1.707l6.835 6.835a1 1 0 0 0 1.811-.75V16a1 1 0 0 1 1-1h6a1 1 0 0 0 1-1v-4a1 1 0 0 0-1-1z"
    />
  </symbol>

  <symbol id="light" viewBox="0 0 24 24" fill="none" stroke="currentColor" stroke-width="2"
          stroke-linecap="round" stroke-linejoin="round">
    <circle cx="12" cy="12" r="4" />
    <path
      d="M12 2v2m0 16v2m10-10h-2M4 12H2m15.5 6.5-1.5-1.5M8 8 6.5 6.5m11 0L16.5 8M8 16.5 6.5 18"
    />
  </symbol>

  <symbol id="dark" viewBox="0 0 24 24" fill="none" stroke="currentColor" stroke-width="2"
          stroke-linecap="round" stroke-linejoin="round">
    <path d="M21 12.79A9 9 0 1 1 11.21 3 7 7 0 0 0 21 12.79z" />
  </symbol>

  <symbol id="geo" viewBox="0 0 24 24" fill="none" stroke="currentColor" stroke-width="2"
          stroke-linecap="round" stroke-linejoin="round">
    <path d="M15 22a1 1 0 0 1-1-1v-4a1 1 0 0 1 .445-.832l3-2a1 1 0 0 1 1.11 0l3 2A1 1 0 0 1 22 17v4a1 1 0 0 1-1 1z"/>
    <path d="M18 10a8 8 0 0 0-16 0c0 4.993 5.539 10.193 7.399 11.799a1 1 0 0 0 .601.2"/>
    <path d="M18 22v-3"/>
    <circle cx="10" cy="10" r="3"/>
  </symbol>

  <symbol id="clock" viewBox="0 0 24 24" fill="none" stroke="currentColor" stroke-width="2"
          stroke-linecap="round" stroke-linejoin="round">
    <path d="M12 6v6l4-2"/><circle cx="12" cy="12" r="10"/>
  </symbol>

  <symbol id="burger" viewBox="0 0 24 24" fill="none" stroke="currentColor" stroke-width="2"
          stroke-linecap="round" stroke-linejoin="round">
    <path
      stroke-linecap="round"
      stroke-linejoin="round"
      stroke-width="2"
      d="M4 6h16M4 12h16M4 18h16"
    ></path>
  </symbol>

  <symbol id="arrow-down" viewBox="0 0 24 24" fill="none" stroke="currentColor" stroke-width="2"
          stroke-linecap="round" stroke-linejoin="round">
    <path d="M19 14l-7 7m0 0l-7-7m7 7V3"></path>
  </symbol>

  <symbol id="sun-cloud" viewBox="0 0 24 24" fill="none" stroke="currentColor" stroke-width="2"
          stroke-linecap="round" stroke-linejoin="round">
    <path d="M12 2v2" />
    <path d="m4.93 4.93 1.41 1.41" />
    <path d="M20 12h2" />
    <path d="m19.07 4.93-1.41 1.41" />
    <path d="M15.947 12.65a4 4 0 0 0-5.925-4.128" />
    <path d="M13 22H7a5 5 0 1 1 4.9-6H13a3 3 0 0 1 0 6Z" />
  </symbol>

</svg>
